<svg width="24" height="24" viewBox="0 0 24 24" fill="none" xmlns="http://www.w3.org/2000/svg" preserveAspectRatio="xMinYMid meet">
<path fill-rule="evenodd" clip-rule="evenodd" d="M3 4C3 3.44772 3.44772 3 4 3H9C9.55228 3 10 3.44772 10 4V9C10 9.55228 9.55228 10 9 10H4C3.44772 10 3 9.55228 3 9V4ZM4 4V9H9V4H4ZM11.5 4C11.5 3.44772 11.9477 3 12.5 3H20C20.5523 3 21 3.44772 21 4V9C21 9.55228 20.5523 10 20 10H12.5C11.9477 10 11.5 9.55228 11.5 9V4ZM12.5 4V9H20V4H12.5ZM3 12.5C3 11.9477 3.44772 11.5 4 11.5H9C9.55228 11.5 10 11.9477 10 12.5V20C10 20.5523 9.55228 21 9 21H4C3.44772 21 3 20.5523 3 20V12.5ZM4 12.5V20H9V12.5H4ZM11.5 12.5C11.5 11.9477 11.9477 11.5 12.5 11.5H20C20.5523 11.5 21 11.9477 21 12.5V20C21 20.5523 20.5523 21 20 21H12.5C11.9477 21 11.5 20.5523 11.5 20V12.5ZM12.5 12.5V20H20V12.5H12.5Z" fill="#212529"/>
</svg>
